<?xml version="1.0" encoding="utf-8"?>
<!-- Generator: Adobe Illustrator 18.1.1, SVG Export Plug-In . SVG Version: 6.00 Build 0)  -->
<svg version="1.1" id="Слой_1" xmlns="http://www.w3.org/2000/svg" xmlns:xlink="http://www.w3.org/1999/xlink" x="0px" y="0px"
	 viewBox="0 0 213.7 38.1" enable-background="new 0 0 213.7 38.1" xml:space="preserve">
<g>
	<path fill="#669CD6" d="M3.3,13.6V7.3c0-1,0.8-1.9,1.9-1.9h25.4c1,0,1.9,0.8,1.9,1.9v6.3h3.3V5.9c0-2.1-1.7-3.8-3.8-3.8H3.8
		C1.7,2.1,0,3.8,0,5.9v7.7H3.3z"/>
	<path fill="#669CD6" d="M32.5,19v13.7c0,1-0.8,1.9-1.9,1.9H5.2c-1,0-1.9-0.8-1.9-1.9V19H0v15.2C0,36.3,1.7,38,3.8,38h28.3
		c2.1,0,3.8-1.7,3.8-3.8V19H32.5z"/>
</g>
<g>
	<path fill="#669CD6" d="M47.6,16.4V3.3h9.6v2.9H51v2h6.1v2.9H51v2.2h6.2v2.9H47.6z"/>
	<path fill="#669CD6" d="M58,13.6c1.3-0.2,2-0.7,2.4-3.7l0.8-6.6h9.7v10.1h1.2v5.3h-3.4v-2.4h-7.3v2.4H58V13.6z M62.3,13.5h5.2V6.3
		h-3.3l-0.5,3.9C63.6,11.7,63.1,12.7,62.3,13.5z"/>
	<path fill="#669CD6" d="M73.2,16.4V3.3h3.4V11l5.3-7.7h3.5v13.1h-3.4V8.3l-5.5,8.1H73.2z"/>
	<path fill="#669CD6" d="M96.1,16.4v-5.2h-5.4v5.2h-3.4V3.3h3.4v4.9h5.4V3.3h3.4v13.1H96.1z"/>
	<path fill="#669CD6" d="M104.7,3.3v4.4h3.2c2.9,0,4.5,2,4.5,4.3c0,2.4-1.6,4.3-4.5,4.3h-6.5V3.3H104.7z M104.7,10.7v2.8h2.7
		c0.9,0,1.6-0.5,1.6-1.4c0-0.9-0.7-1.4-1.6-1.4H104.7z M113.4,16.4V3.3h3.4v13.1H113.4z"/>
	<path fill="#669CD6" d="M118.8,16.4V3.3h3.4V11l5.3-7.7h3.5v13.1h-3.4V8.3l-5.5,8.1H118.8z M124.8,2.8c-1.4,0-2.6-0.7-3.4-1.7
		l1.3-1.1c0.5,0.7,1.2,1.1,2.2,1.1c0.9,0,1.6-0.4,2.1-1.1l1.3,1.1C127.5,2.1,126.2,2.8,124.8,2.8z"/>
	<path fill="#669CD6" d="M146.3,16.4V6.3h-5.4v10.1h-3.4V3.3h12.2v13.1H146.3z"/>
	<path fill="#669CD6" d="M150.9,9.9c0-4,3-6.8,7-6.8c4,0,7,2.8,7,6.8s-3,6.8-7,6.8C153.9,16.6,150.9,13.8,150.9,9.9z M161.5,9.9
		c0-2.1-1.4-3.8-3.5-3.8c-2.2,0-3.6,1.6-3.6,3.8c0,2.1,1.4,3.8,3.6,3.8C160.1,13.6,161.5,12,161.5,9.9z"/>
	<path fill="#669CD6" d="M166.2,16.4V3.3h6.5c2.9,0,4.5,2,4.5,4.3c0,2.4-1.6,4.3-4.5,4.3h-3.2v4.4H166.2z M173.9,7.7
		c0-0.9-0.7-1.4-1.6-1.4h-2.7v2.8h2.7C173.2,9.1,173.9,8.6,173.9,7.7z"/>
	<path fill="#669CD6" d="M181.3,16.4V6.3h-3.7V3.3h10.7v2.9h-3.6v10.1H181.3z"/>
	<path fill="#669CD6" d="M197.2,16.4l-0.6-1.9h-5.2l-0.6,1.9h-3.8l4.9-13.1h4.2l4.9,13.1H197.2z M194,6.7l-1.7,4.9h3.3L194,6.7z"/>
	<path fill="#669CD6" d="M200.9,13.6c1.2,0,2-0.7,2.4-3.7l0.8-6.6h9.7v13.1h-3.4V6.3H207l-0.5,3.9c-0.6,5.3-2.9,6.4-5.7,6.4V13.6z"
		/>
</g>
<g>
	<path fill="#EE3F58" d="M57.8,24.8v2.9h-6.8v1.7h3.3c2.9,0,4.4,1.9,4.4,4.2c0,2.3-1.5,4.2-4.4,4.2h-6.7V24.8H57.8z M50.9,32.4v2.6
		h2.9c0.8,0,1.4-0.5,1.4-1.3c0-0.8-0.6-1.3-1.4-1.3H50.9z"/>
	<path fill="#EE3F58" d="M60.9,37.9V24.8h3.4v7.7l5.3-7.7h3.5v13.1h-3.4v-8.1l-5.5,8.1H60.9z"/>
	<path fill="#EE3F58" d="M75.4,36l1.7-2.3c0.9,0.9,2.6,1.4,3.8,1.4c1.5,0,2.4-0.5,2.4-1.3c0-0.7-0.6-1.1-2.5-1.1H78v-3h2.7
		c1.4,0,2.3-0.3,2.3-1c0-0.8-1-1.2-2.4-1.2c-1.2,0-2.5,0.4-3.5,1.3l-1.6-2.1c1.1-1.2,3-2.1,5.4-2.1c3.3,0,5.4,1.4,5.4,3.6
		c0,1.5-1.3,2.7-2.9,2.9c1.4,0.1,3.1,1.2,3.1,3.1c0,2.3-2.4,3.9-5.6,3.9C78.5,38.1,76.4,37.2,75.4,36z"/>
	<path fill="#EE3F58" d="M98,37.9v-5.2h-5.4v5.2h-3.4V24.8h3.4v4.9H98v-4.9h3.4v13.1H98z"/>
	<path fill="#EE3F58" d="M104.5,37.9V24.8h9.6v2.9h-6.2v2h6.1v2.9h-6.1v2.2h6.2v2.9H104.5z"/>
	<path fill="#EE3F58" d="M116.2,31.3c0-4,3.1-6.8,7.1-6.8c3.2,0,4.8,1.8,5.7,3.5l-2.9,1.4c-0.4-1-1.5-1.9-2.8-1.9
		c-2.1,0-3.6,1.6-3.6,3.8c0,2.1,1.5,3.8,3.6,3.8c1.3,0,2.4-0.9,2.8-1.9l2.9,1.4c-0.8,1.7-2.5,3.5-5.7,3.5
		C119.2,38.1,116.2,35.4,116.2,31.3z"/>
	<path fill="#EE3F58" d="M135.7,37.1l1.3-2.6c0.5,0.3,1,0.6,1.7,0.6c0.8,0,1.2-0.3,1.6-1l-4.7-9.3h3.8l2.8,6.1l2.8-6.1h3.8
		l-5.3,10.5c-0.8,1.6-2.1,2.8-4.5,2.8C137.7,38.1,136.5,37.7,135.7,37.1z"/>
	<path fill="#EE3F58" d="M149.5,31.3c0-4,3.1-6.8,7.1-6.8c3.2,0,4.8,1.8,5.7,3.5l-2.9,1.4c-0.4-1-1.5-1.9-2.8-1.9
		c-2.1,0-3.6,1.6-3.6,3.8c0,2.1,1.5,3.8,3.6,3.8c1.3,0,2.4-0.9,2.8-1.9l2.9,1.4c-0.8,1.7-2.5,3.5-5.7,3.5
		C152.6,38.1,149.5,35.4,149.5,31.3z"/>
	<path fill="#EE3F58" d="M163.6,35.1c1.2,0,2-0.7,2.4-3.7l0.8-6.6h9.7v13.1h-3.4V27.7h-3.3l-0.5,3.9c-0.6,5.3-2.9,6.4-5.7,6.4V35.1z
		"/>
	<path fill="#EE3F58" d="M178.4,37.1l1.3-2.6c0.5,0.3,1,0.6,1.7,0.6c0.8,0,1.2-0.3,1.6-1l-4.7-9.3h3.8l2.8,6.1l2.8-6.1h3.8
		l-5.3,10.5c-0.8,1.6-2.1,2.8-4.5,2.8C180.4,38.1,179.2,37.7,178.4,37.1z"/>
	<path fill="#EE3F58" d="M193.3,37.9V24.8h9.6v2.9h-6.2v10.1H193.3z"/>
</g>
<g>
	<path fill="#EE3F58" d="M18.2,26.7v-8.4L16,20.4l-1.9-1.9l4.4-4.3h2.8v12.6H18.2z"/>
</g>
</svg>
