<?xml version="1.0" encoding="UTF-8"?><!DOCTYPE svg PUBLIC "-//W3C//DTD SVG 1.1//EN" "http://www.w3.org/Graphics/SVG/1.1/DTD/svg11.dtd"><svg xmlns="http://www.w3.org/2000/svg" style="display: none;"><symbol id="step1" viewBox="0 0 800 800"><path d="M748.2 52c-68.9-69-180.9-69-249.8 0l-458 457.6c-3.6 3.6-5.8 8.2-6.5 13.1L0 773.9c-1 7.2 1.5 14.3 6.5 19.3 4.3 4.3 10.2 6.8 16.2 6.8 1 0 2 0 3.1-.2l151.4-20.5c12.6-1.7 21.5-13.3 19.8-25.9-1.7-12.6-13.3-21.5-25.9-19.8L49.6 750.1l23.7-175.2 184.5 184.4c4.3 4.3 10.2 6.8 16.2 6.8s11.9-2.4 16.2-6.8l458-457.6C781.6 268.3 800 224 800 176.8S781.6 85.3 748.2 52zm-240.9 56.3l76.9 76.9-417.9 417.6L89.4 526l417.9-417.7zM274.2 710.5L199 635.4l417.9-417.7 75.2 75.2-417.9 417.6zm449.9-450.6L540.1 76c23.4-19.3 52.5-29.8 83.2-29.8 35 0 67.7 13.6 92.4 38.2 24.7 24.5 38.2 57.4 38.2 92.4.1 30.8-10.5 59.8-29.8 83.1z"/></symbol><symbol id="step2" viewBox="0 0 800 738"><path d="M798 26.2H272.6c-1 0-2 .8-2 2V75c0 1 .8 2 2 2H798c1 0 2-.8 2-2V28.2c0-1.1-.8-2-2-2zM272.6 161.7h261.6c1 0 2-.8 2-2v-46.8c0-1-.8-2-2-2H272.6c-1 0-2 .8-2 2v46.8c0 1.2.8 2 2 2zM798 301.2H272.6c-1 0-2 .8-2 2V350c0 1 .8 2 2 2H798c1 0 2-.8 2-2v-46.8c0-1.1-.8-2-2-2zM272.6 436.8h261.6c1 0 2-.8 2-2V388c0-1-.8-2-2-2H272.6c-1 0-2 .8-2 2v46.8c0 1.1.8 2 2 2zM798 576.3H272.6c-1 0-2 .8-2 2v46.8c0 1 .8 2 2 2H798c1 0 2-.8 2-2v-46.8c0-1.2-.8-2-2-2zM534.2 661.1H272.6c-1 0-2 .8-2 2v46.8c0 1 .8 2 2 2h261.6c1 0 2-.8 2-2v-46.8c-.2-1.2-1-2-2-2zM86.2 100.3L44 57.8 0 101.6 42.2 144 86 188l44-43.7L230.7 44 187 0 86.2 100.3zM86.2 375.3L44 332.8 0 376.6 42.2 419 86 463l44-43.7L230.7 319 187 275 86.2 375.3zM86.2 650.3L44 607.8 0 651.6 42.2 694 86 738l44-43.8L230.7 594 187 550 86.2 650.3z"/></symbol><symbol id="step3" viewBox="0 0 47 60"><path d="M36 22H11c-.6 0-1 .4-1 1s.4 1 1 1h25c.6 0 1-.4 1-1s-.4-1-1-1zM11 16h10c.6 0 1-.4 1-1s-.4-1-1-1H11c-.6 0-1 .4-1 1s.4 1 1 1zM36 30H11c-.6 0-1 .4-1 1s.4 1 1 1h25c.6 0 1-.4 1-1s-.4-1-1-1zM36 38H11c-.6 0-1 .4-1 1s.4 1 1 1h25c.6 0 1-.4 1-1s-.4-1-1-1zM36 46H11c-.6 0-1 .4-1 1s.4 1 1 1h25c.6 0 1-.4 1-1s-.4-1-1-1z"/><path d="M32.4 0H0v60h47V14.6L32.4 0zm.6 3.4L43.6 14H33V3.4zM2 58V2h29v14h14v42H2z"/></symbol></svg>