<?xml version="1.0" encoding="UTF-8"?><!DOCTYPE svg PUBLIC "-//W3C//DTD SVG 1.1//EN" "http://www.w3.org/Graphics/SVG/1.1/DTD/svg11.dtd"><svg xmlns="http://www.w3.org/2000/svg" style="display: none;"><defs><style>.cls-1{fill:#fff;fill-rule:evenodd}</style><style>.cls-1{fill:#494949;fill-rule:evenodd}</style></defs><symbol id="search" viewBox="0 0 20 20.031" preserveAspectRatio="xMidYMid"><path d="M19.855 17.38l-2.816-2.814a.47.47 0 0 0-.662 0l-.146.145-.211-.212-.797-.8-.201-.201a8.406 8.406 0 0 0-.715-11.063 8.391 8.391 0 0 0-11.867 0 8.41 8.41 0 0 0 0 11.881 8.39 8.39 0 0 0 11.053.715l.199.199 1.007 1.014.229-.23-.372.375a.468.468 0 0 0 0 .664l2.814 2.813a.47.47 0 0 0 .664 0l.91-.908.911-.914a.474.474 0 0 0 0-.664zm-7.074-4.59a6.237 6.237 0 0 1-8.816 0 6.246 6.246 0 0 1 0-8.825 6.23 6.23 0 0 1 8.816 0 6.244 6.244 0 0 1 0 8.825z" class="cls-1"/></symbol><symbol id="select-arrow" viewBox="0 0 12 7" preserveAspectRatio="xMidYMid"><path d="M.007.958L.949.007 6 5.1l2.282-2.302 2.765-2.79.946.95-3.711 3.74L6 7.001.007.958z" class="cls-1"/></symbol></svg>