<svg xmlns="http://www.w3.org/2000/svg" xmlns:xlink="http://www.w3.org/1999/xlink" preserveAspectRatio="xMidYMid" width="20" height="20.031" viewBox="0 0 20 20.031">
  <defs>
    <style>
      .cls-1 {
        fill: #fff;
        fill-rule: evenodd;
      }
    </style>
  </defs>
  <path d="M19.855,17.380 L17.039,14.566 C16.855,14.384 16.559,14.384 16.377,14.566 L16.231,14.711 L16.020,14.499 L15.223,13.699 L15.223,13.699 L15.022,13.498 C17.564,10.208 17.323,5.458 14.307,2.435 C11.030,-0.842 5.716,-0.842 2.440,2.435 C-0.836,5.720 -0.836,11.033 2.440,14.316 C5.458,17.334 10.202,17.573 13.493,15.031 L13.692,15.230 L13.692,15.230 L14.699,16.244 L14.928,16.014 L14.556,16.389 C14.372,16.571 14.372,16.871 14.556,17.053 L17.370,19.866 C17.552,20.049 17.851,20.049 18.034,19.866 L18.944,18.958 L19.855,18.044 C20.036,17.861 20.036,17.561 19.855,17.380 ZM12.781,12.790 C10.348,15.224 6.400,15.222 3.965,12.790 C1.531,10.355 1.531,6.398 3.965,3.965 C6.400,1.528 10.348,1.528 12.781,3.965 C15.216,6.398 15.216,10.355 12.781,12.790 Z" class="cls-1"/>
</svg>
